<?xml version="1.0" encoding="utf-8"?>
<svg version="1.1" xmlns:xlink="http://www.w3.org/1999/xlink" width="11px" height="11px" xmlns="http://www.w3.org/2000/svg">
  <g transform="matrix(1 0 0 1 -779 -94 )">
    <path d="M 10.485835694051 0  C 10.7039660056657 0  10.8571765816808 0.1015625  10.9454674220963 0.3046875  C 11.0337582625118 0.518229166666666  10.997403210576 0.700520833333332  10.836402266289 0.8515625  L 6.9957507082153 4.703125  L 6.9957507082153 10.5  C 6.9957507082153 10.71875  6.89447592067989 10.8723958333333  6.69192634560907 10.9609375  C 6.62440982058546 10.9869791666667  6.55949008498584 11  6.4971671388102 11  C 6.35694050991501 11  6.24008498583569 10.9505208333333  6.14660056657224 10.8515625  L 4.15226628895184 8.8515625  C 4.05358829084042 8.75260416666667  4.0042492917847 8.63541666666667  4.0042492917847 8.5  L 4.0042492917847 4.703125  L 0.163597733711048 0.8515625  C 0.00259678942398489 0.700520833333332  -0.0337582625118036 0.518229166666666  0.0545325779036827 0.3046875  C 0.142823418319169 0.1015625  0.296033994334278 0  0.514164305949009 0  L 10.485835694051 0  Z " fill-rule="nonzero" fill="#636c8c" stroke="none" transform="matrix(1 0 0 1 779 94 )" />
  </g>
</svg>